<svg xmlns="http://www.w3.org/2000/svg" xmlns:xlink="http://www.w3.org/1999/xlink" id="Layer_1" x="0px" y="0px" viewBox="0 0 459 92" style="enable-background:new 0 0 459 92;" xml:space="preserve">
<style type="text/css">
	.st0{fill:#F2B500;}
</style>
<g transform="translate(0.000000,500.000000) scale(0.100000,-0.100000)">
	<path class="st0" d="M1086,4881c-7-11-25-276-26-373v-68h55h54l3,83l3,82l58-82c32-46,61-83,63-83s22,16,44,36l39,36l-54,78   c-30,43-55,81-55,85s28,38,62,76l62,70l-37,37l-37,37l-70-70l-71-70l3,65l3,65l-47,3C1113,4890,1089,4887,1086,4881z"></path>
	<path class="st0" d="M1406,4853c-3-21-9-123-13-226l-6-188l59,3l59,3l1,75c0,41,4,141,9,223l7,147h-55h-54L1406,4853z M1440,4863   c0-5-5-15-10-23c-8-12-10-11-10,8c0,12,5,22,10,22C1436,4870,1440,4867,1440,4863z M1417,4708c-3-8-6-5-6,6c-1,11,2,17,5,13   C1419,4724,1420,4715,1417,4708z"></path>
	<path class="st0" d="M2275,4881l-110-6l-6-50c-4-27-10-126-14-219l-8-168l144,7c79,4,148,10,152,15c5,4,7,27,5,51l-3,44l-93,3   c-80,2-93,5-88,18c3,9,6,19,6,24c0,4,26,11,58,14c86,11,92,14,92,47c0,16-5,29-12,29c-9,0-8,3,2,10c24,15-13,23-81,17l-60-5l3,26   c3,26,5,27,96,36l92,8v54v54l-32-2C2400,4887,2336,4884,2275,4881z"></path>
	<path class="st0" d="M2590,4883c-14-2-41-9-61-14l-36-9l-7-118c-3-64-9-159-13-209l-6-93h69c85,0,138,23,182,76   c42,51,62,113,62,193C2780,4839,2707,4906,2590,4883z M2661,4764c34-41-3-178-55-202c-30-14-35,0-24,68c4,25,7,66,7,92   c1,27,6,48,14,51C2627,4783,2648,4780,2661,4764z"></path>
	<path class="st0" d="M2826,4878c-10-29-24-424-16-432c5-5,61-5,137,0l128,9l3,58l3,57h-81h-81l3,158l3,157l-48,3   C2845,4890,2828,4887,2826,4878z"></path>
	<path class="st0" d="M3116,4881c-8-13-28-419-21-431c3-5,31-10,61-10h54v73c-1,39,3,137,9,216s8,148,5,153   C3217,4893,3123,4893,3116,4881z M3139,4848c-17-34-19-34-19-5c0,18,5,27,15,27C3148,4870,3149,4866,3139,4848z M3127,4763   c-3-10-5-4-5,12c0,17,2,24,5,18C3129,4786,3129,4772,3127,4763z"></path>
	<path class="st0" d="M3256,4878c-10-29-24-424-16-432c5-5,61-5,137,0l128,9l3,58l3,57h-81h-81l3,158l3,157l-48,3   C3275,4890,3258,4887,3256,4878z"></path>
	<path class="st0" d="M4032,4874c-97-49-155-236-109-345c47-110,184-119,258-16c34,46,36,67,11,90c-27,24-38,21-62-18   c-23-37-64-55-82-37c-35,35-10,206,34,236c30,21,42,6,30-37c-6-20-7-38-4-41s29-6,58-6c50,0,53,1,59,31c18,82-31,149-112,156   C4081,4889,4054,4885,4032,4874z"></path>
	<path class="st0" d="M165,4861c-38-23-62-57-70-103c-10-52,12-93,75-136c40-28,56-45,58-65c3-24,0-27-25-27c-15,1-39,7-53,15   s-31,14-37,15c-12,0-43-49-43-68c0-16,97-52,140-52c67,0,108,23,130,74c33,74,19,105-95,200c-36,31-38,36-27,60c16,35,30,33,34-6   c3-32,4-33,57-36l54-3l-5,52c-7,72-38,99-111,99C214,4880,184,4873,165,4861z"></path>
	<path class="st0" d="M393,4813c-4-37-8-123-8-191v-124l33-29c27-24,41-29,84-29c77,0,131,30,160,88c20,41,23,65,26,200l4,152h-51   c-28,0-51-1-51-2c-1-2-5-67-10-145c-10-159-18-186-58-181c-27,3-27,4-27,83c0,44,2,116,5,160l5,80l-52,3l-51,3L393,4813z"></path>
	<path class="st0" d="M735,4838c-6-45-25-322-25-371c0-28,0-28,58-25l57,3l5,108l5,109l40-109l40-108h55h55l2,110c0,61,4,159,7,218   l6,108l-53-3l-52-3l-5-80c-6-85-6-85-42,10c-27,70-33,75-94,75h-53L735,4838z"></path>
	<path class="st0" d="M1634,4870c-32-13-72-67-80-106c-11-62,5-94,74-142c40-28,62-50,62-63c0-27-27-35-64-20c-60,25-64,24-80-8   c-9-16-16-34-16-39s23-20,52-32c110-47,212-7,225,90c8,57-16,101-79,141c-51,33-69,69-48,94c17,21,30,9,30-26c0-30,0-30,53-27l52,3   l-2,50c-4,69-34,95-106,94C1678,4879,1646,4875,1634,4870z"></path>
	<path class="st0" d="M1923,4860c-41-25-65-71-65-127c0-51,19-77,89-121c24-15,45-33,48-39c7-21-6-43-26-43c-11,0-36,7-56,15   c-47,20-47,20-66-19c-18-39-14-46,46-71c72-30,169-12,202,38c25,39,29,89,11,125c-9,17-41,50-71,72c-45,33-55,46-55,70   c0,16,5,32,11,36c14,8,29-14,29-43c0-21,5-23,50-23h50v46c0,37-5,51-29,75c-25,25-37,29-83,29C1973,4880,1944,4873,1923,4860z"></path>
	<path class="st0" d="M3674,4873c-28-20-162-401-149-423c3-5,31-10,60-10c53,0,55,1,63,33c7,27,14,34,53,43l44,11l9-43l9-44h59   c49,0,58,3,58,18c0,44-63,351-78,382c-16,32-21,35-67,38C3708,4879,3680,4877,3674,4873z M3730,4666c0-22-6-36-16-40   c-24-9-25-5-12,37C3716,4709,3730,4711,3730,4666z M3834,4501l6-34l-20,26c-12,15-17,32-14,42C3815,4557,3826,4543,3834,4501z"></path>
	<path class="st0" d="M4343,4860c-41-25-65-71-65-127c0-51,19-77,89-121c24-15,45-33,48-39c7-21-6-43-26-43c-11,0-36,7-56,15   c-47,20-47,20-66-19c-18-39-14-46,46-71c72-30,169-12,202,38c25,39,29,89,11,125c-9,17-41,50-71,72c-45,33-55,46-55,70   c0,16,5,32,11,36c14,8,29-14,29-43c0-21,5-23,50-23h50v46c0,37-5,51-29,75c-25,25-37,29-83,29C4393,4880,4364,4873,4343,4860z"></path>
	<path d="M1606,4254c-18-18-29-54-24-81c4-21,43-29,63-13c19,16,8,32-16,25c-14-5-19-2-19,12c0,21,20,56,20,36c0-7,7-13,15-13   c21,0,19,27-4,40C1626,4267,1618,4266,1606,4254z"></path>
	<path d="M1809,4249c-19-19-19-22-5-44c9-14,16-28,16-32s-5-1-10,7c-7,11-12,12-21,3c-6-6-8-16-5-22c11-16,52-13,67,5   c11,14,11,18-4,29c-9,7-17,21-17,31c0,15,2,16,9,5c11-17,32-5,25,14C1855,4268,1830,4270,1809,4249z"></path>
	<path d="M2302,4254c-28-19-39-72-19-91c19-19,67-10,67,13c0,12-6,15-25,10c-29-7-29-7-14,31c7,20,12,24,18,14c11-17,32-5,25,14   C2346,4266,2324,4270,2302,4254z"></path>
	<path d="M1685,4220c-11-65,35-97,69-48c21,29,21,88,1,88c-9,0-15-9-15-24c0-31-10-56-21-56c-5,0-6,18-3,40c5,32,4,40-9,40   C1697,4260,1689,4246,1685,4220z"></path>
	<path d="M1890,4245c0-8,5-15,11-15c8,0,10-12,6-35c-6-36,9-58,24-34c5,8,9,27,9,42c0,20,6,30,20,34c36,9,21,23-25,23   C1902,4260,1890,4256,1890,4245z"></path>
	<path d="M2009,4248c-22-18-33-66-18-84c30-36,84,8,77,63C2065,4259,2035,4269,2009,4248z M2050,4224c0-12-21-44-29-44   c-5,0-6,11-3,25c2,14,11,25,18,25C2044,4230,2050,4227,2050,4224z"></path>
	<path d="M2105,4248c-11-29-10-91,3-95c7-3,12,6,13,24c0,15,3,22,6,16c2-7,9-13,15-13s17-8,24-17c17-24,21-17,30,45c6,44,4,52-10,52   c-9,0-22-12-29-26l-12-27l-5,23C2134,4257,2112,4268,2105,4248z"></path>
	<path d="M2399,4248c-22-18-33-66-18-84c30-36,84,8,77,63C2455,4259,2425,4269,2399,4248z M2440,4224c0-12-21-44-29-44   c-5,0-6,11-3,25c2,14,11,25,18,25C2434,4230,2440,4227,2440,4224z"></path>
	<path d="M2495,4248c-11-29-9-91,3-95c8-3,12,5,12,24l1,28l15-27c8-16,19-28,24-28c10,0,31,90,24,102c-9,15-23,8-30-14l-7-23l-8,23   C2520,4262,2502,4267,2495,4248z"></path>
	<path d="M2600,4245c0-8,6-15,14-15c11,0,13-10,9-41c-5-33-3-41,8-37c8,3,15,13,17,24c7,50,14,64,27,64c8,0,15,5,15,10   c0,6-20,10-45,10C2612,4260,2600,4256,2600,4245z"></path>
	<path d="M2705,4208c0-52,0-53,33-56c25-3,32,1,32,14c0,11-6,15-20,11c-11-3-20-2-20,3c0,4,9,10,20,13c25,6,26,24,3,30   c-15,4-15,6,5,12c34,11,26,25-15,25h-38V4208z"></path>
	<path d="M2806,4229c-9-47-7-79,5-79c6,0,13,9,16,20l6,21l14-21c21-30,30-25,37,25c9,57,9,60-6,60c-7,0-15-11-18-25l-6-25l-7,28   C2837,4270,2814,4267,2806,4229z"></path>
	<path d="M2920,4245c0-8,5-15,11-15c8,0,10-12,6-35c-6-36,9-58,24-34c5,8,9,27,9,42c0,20,6,30,20,34c36,9,21,23-25,23   C2932,4260,2920,4256,2920,4245z"></path>
	<path d="M1467,4224c-14-14-7-35,11-32c9,2,17,10,17,17C1495,4225,1477,4234,1467,4224z"></path>
	<path d="M3093,4223c-18-6-16-33,1-33c19,0,31,19,20,30C3109,4224,3099,4225,3093,4223z"></path>
</g>
</svg>